<svg width="253" height="80" viewBox="0 0 253 80" fill="none" xmlns="http://www.w3.org/2000/svg">
<path d="M47.3623 67.6178C44.7866 68.5897 42.0799 69.1704 39.3322 69.3406L38.9088 69.7787L37.7262 69.2239C30.4028 65.769 24.7435 59.5573 21.9835 51.9448C19.2235 44.3323 19.587 35.937 22.9946 28.5915L23.1698 28.2119L23.491 27.9491C31.2729 21.4812 47.2747 18.6634 58.6482 24.7809L57.013 28.0805C54.3743 26.8526 51.4334 26.4256 48.5544 26.8524C45.6754 27.2792 42.9849 28.541 40.8159 30.4817C38.6469 32.4223 37.0947 34.9565 36.3516 37.7705C35.6085 40.5845 35.7071 43.5546 36.6351 46.3131C37.5632 49.0716 39.2799 51.4974 41.5728 53.2899C43.8657 55.0825 46.634 56.1632 49.5349 56.3982C52.4359 56.6331 55.342 56.0121 57.8935 54.6119C60.445 53.2118 62.5298 51.094 63.8897 48.5208L67.1601 49.9808C64.3992 55.8379 59.9702 60.7494 54.4288 64.0992C52.2025 65.5154 49.8341 66.6947 47.3623 67.6178ZM38.8358 65.7052C43.7338 65.3535 48.4595 63.7498 52.56 61.0477C53.2754 60.5951 54.02 60.1279 54.6478 59.5877C50.3061 60.4488 45.7996 59.727 41.944 57.5531C38.0883 55.3792 35.1384 51.8968 33.628 47.7362C32.1176 43.5756 32.1467 39.0118 33.7098 34.8708C35.273 30.7297 38.2671 27.2852 42.15 25.1605C36.3851 25.3608 30.8038 27.2381 26.0898 30.5626C23.2369 36.9328 22.9665 44.1614 25.3357 50.727C27.7048 57.2925 32.5287 62.6829 38.792 65.7636L38.8358 65.7052ZM61.1887 70.2751C57.4031 71.6623 53.3797 72.2837 49.352 72.1033C45.3243 71.9228 41.3725 70.9441 37.7262 69.2239L35.4193 68.1288L37.77 65.7052H38.5292C43.5351 65.418 48.376 63.8111 52.56 61.0477C57.471 58.0759 61.3927 53.7172 63.8313 48.5208V48.404C63.9481 48.185 64.0503 47.9806 64.1525 47.7616L64.9263 46.1118L79.1761 52.7548L78.4023 54.4047C76.7274 58.0583 74.3431 61.3428 71.3881 64.0673C68.433 66.7917 64.9661 68.9018 61.1887 70.2751ZM46.0483 68.0704C51.5846 69.0413 57.286 68.2589 62.3561 65.8325C67.4263 63.406 71.612 59.4567 74.3288 54.5361L66.7221 50.9882C63.9136 56.4127 59.6653 60.959 54.4434 64.1284C51.8217 65.7897 49.0011 67.1142 46.0483 68.0704ZM58.6482 28.7521L56.94 27.9929L56.283 27.7009H56.1662C50.9417 25.3229 45.134 24.531 39.4636 25.4233C34.5007 25.989 29.7758 27.8578 25.7686 30.84L21.5784 34.3148L22.9216 28.5915V28.4309C26.4003 21.142 32.6145 15.5201 40.2142 12.7863C47.814 10.0526 56.1855 10.4279 63.5101 13.8307L65.1599 14.6046L58.6482 28.7521ZM31.3459 23.7005C33.826 22.7996 36.3958 22.1682 39.011 21.817C45.0682 20.8562 51.2732 21.5888 56.94 23.9341L60.4295 16.4004C55.1617 14.3809 49.3957 14.0521 43.9325 15.4598C38.4694 16.8674 33.5802 19.9416 29.9443 24.2553L31.3459 23.7005Z" fill="url(#paint0_linear_1111_1846)"/>
<path d="M101.296 20.3417L87.0318 22.2398C82.2887 13.2061 74.3582 6.25713 64.7797 2.74176C55.2013 -0.773597 44.6584 -0.604521 35.1976 3.21617C25.7369 7.03686 18.0333 14.2366 13.5823 23.4177C9.13127 32.5987 8.25045 43.1062 11.1108 52.9002L14.6149 51.8781C11.8638 42.7092 12.724 32.8353 17.0191 24.2803C21.3143 15.7252 28.7191 9.13707 37.7157 5.86625C46.7124 2.59544 56.6193 2.88969 65.4059 6.6887C74.1926 10.4877 81.1933 17.5037 84.9732 26.2986L101.296 20.3417Z" fill="url(#paint1_linear_1111_1846)"/>
<path d="M86.6813 28.1508C89.3113 37.2818 88.3762 47.0708 84.0651 55.5387C79.754 64.0066 72.3884 70.5218 63.4576 73.767C54.5267 77.0123 44.6968 76.7454 35.9551 73.0205C27.2135 69.2956 20.2122 62.3905 16.3668 53.7011L0 59.5996L14.2644 57.76C19.0075 66.7936 26.938 73.7426 36.5164 77.258C46.0948 80.7734 56.6377 80.6043 66.0985 76.7836C75.5593 72.9629 83.2629 65.7632 87.7139 56.5821C92.1649 47.401 93.0457 36.8936 90.1853 27.0996L86.6813 28.1508Z" fill="url(#paint2_linear_1111_1846)"/>
<path d="M115.957 53.4133C124.141 53.4133 128.564 49.1146 128.564 42.2532V41.8812H121.95V42.0879C121.95 46.0559 120.297 47.42 115.915 47.42C111.245 47.42 109.302 45.7253 109.302 39.1532C109.302 32.5812 111.245 30.8865 115.915 30.8865C120.297 30.8865 121.95 32.2505 121.95 36.2185V36.4252H128.564V36.0532C128.564 29.1918 124.141 24.8931 115.957 24.8931C107.649 24.8931 102.689 30.5145 102.689 39.1532C102.689 47.792 107.649 53.4133 115.957 53.4133ZM138.871 53V41.2612C138.871 38.1199 140.153 37.1279 143.129 37.1279C146.27 37.1279 147.221 38.1612 147.221 41.0546V53H153.421V39.8146C153.421 35.3918 151.189 31.7958 145.815 31.7958C142.509 31.7958 140.235 33.4905 139.119 35.4332H138.871V25.3064H132.713V53H138.871ZM167.43 53.4133C173.382 53.4133 177.185 50.8093 177.185 46.3866V45.9733H171.068V46.2213C171.068 47.5026 169.993 48.04 167.513 48.04C164.124 48.04 162.966 46.8826 162.842 43.9893H177.103C177.227 43.2866 177.392 42.0879 177.392 40.9306C177.392 35.5158 173.713 31.7958 167.472 31.7958C160.982 31.7958 157.014 36.0119 157.014 42.6666C157.014 49.2386 160.28 53.4133 167.43 53.4133ZM167.265 36.8799C170.158 36.8799 171.564 38.0785 171.44 40.2279H162.884C163.132 38.0372 164.289 36.8799 167.265 36.8799ZM189.698 53.4133C192.757 53.4133 195.113 52.1733 196.188 49.9413H196.394V53H202.14V25.3064H195.981V34.9372H195.733C194.782 33.2012 192.881 31.7958 189.698 31.7958C184.036 31.7958 180.688 36.0532 180.688 42.6252C180.688 49.156 183.829 53.4133 189.698 53.4133ZM186.846 42.6252C186.846 38.8225 187.838 37.0865 191.434 37.0865C194.369 37.0865 195.981 38.1199 195.981 40.9306V44.2786C195.981 47.0893 194.369 48.1226 191.434 48.1226C187.838 48.1226 186.846 46.3866 186.846 42.6252ZM214.825 53.4133C217.883 53.4133 220.239 52.1733 221.314 49.9413H221.521V53H227.266V25.3064H221.107V34.9372H220.859C219.909 33.2012 218.007 31.7958 214.825 31.7958C209.162 31.7958 205.814 36.0532 205.814 42.6252C205.814 49.156 208.955 53.4133 214.825 53.4133ZM211.973 42.6252C211.973 38.8225 212.965 37.0865 216.561 37.0865C219.495 37.0865 221.107 38.1199 221.107 40.9306V44.2786C221.107 47.0893 219.495 48.1226 216.561 48.1226C212.965 48.1226 211.973 46.3866 211.973 42.6252ZM237.389 53.4133C241.233 53.4133 243.341 51.7187 244.457 50.1893H244.705V53H250.451V40.6826C250.451 35.1438 247.227 31.7958 241.109 31.7958C235.24 31.7958 231.396 35.0612 231.396 40.0212V40.4759H237.307V40.0212C237.307 37.9132 238.299 37.2105 240.82 37.2105C243.259 37.2105 244.581 37.6652 244.581 40.1039V40.7652L237.472 41.8399C233.173 42.5012 230.859 44.4853 230.859 47.7093C230.859 51.4707 233.711 53.4133 237.389 53.4133ZM236.769 47.2133C236.769 46.3453 237.348 45.9319 238.629 45.7253L244.581 44.8159C244.581 48.04 241.977 48.7013 239.456 48.7013C237.637 48.7013 236.769 48.3293 236.769 47.2133Z" fill="url(#paint3_linear_1111_1846)"/>
<defs>
<linearGradient id="paint0_linear_1111_1846" x1="71.7446" y1="35.1908" x2="15.1251" y2="52.1708" gradientUnits="userSpaceOnUse">
<stop stop-color="#4FD7FA"/>
<stop offset="1" stop-color="#CDBDE7"/>
</linearGradient>
<linearGradient id="paint1_linear_1111_1846" x1="0.107199" y1="41.7032" x2="94.476" y2="12.4938" gradientUnits="userSpaceOnUse">
<stop stop-color="#FEAC05"/>
<stop offset="0.333333" stop-color="#D34004"/>
<stop offset="0.46875" stop-color="#800088"/>
<stop offset="1" stop-color="#EF8800"/>
</linearGradient>
<linearGradient id="paint2_linear_1111_1846" x1="-9.35374" y1="68.5801" x2="85.0151" y2="39.3707" gradientUnits="userSpaceOnUse">
<stop stop-color="#FEAC05"/>
<stop offset="0.333333" stop-color="#D34004"/>
<stop offset="0.46875" stop-color="#800088"/>
<stop offset="1" stop-color="#EF8800"/>
</linearGradient>
<linearGradient id="paint3_linear_1111_1846" x1="233.286" y1="34.7967" x2="149.338" y2="113.569" gradientUnits="userSpaceOnUse">
<stop stop-color="#4FD7FA"/>
<stop offset="1" stop-color="#CDBDE7"/>
</linearGradient>
</defs>
</svg>
