<svg width="40" height="32" viewBox="0 0 40 32" fill="none" xmlns="http://www.w3.org/2000/svg">
<path d="M18.3603 26.7069C17.3619 27.0836 16.3126 27.3088 15.2475 27.3748L15.0833 27.5446L14.6249 27.3295C11.786 25.9902 9.59218 23.5823 8.52227 20.6313C7.45236 17.6803 7.59327 14.4259 8.91423 11.5784L8.98215 11.4313L9.10666 11.3294C12.1233 8.82212 18.3264 7.72979 22.7353 10.1012L22.1014 11.3803C21.0785 10.9043 19.9385 10.7388 18.8225 10.9042C17.7064 11.0697 16.6634 11.5588 15.8226 12.3111C14.9818 13.0634 14.3801 14.0458 14.0921 15.1366C13.804 16.2275 13.8422 17.3788 14.202 18.4482C14.5617 19.5175 15.2272 20.4578 16.1161 21.1527C17.0049 21.8476 18.078 22.2665 19.2026 22.3576C20.3271 22.4487 21.4537 22.208 22.4428 21.6652C23.4318 21.1224 24.24 20.3015 24.7672 19.304L26.035 19.8699C24.9647 22.1404 23.2478 24.0444 21.0997 25.3429C20.2366 25.8919 19.3185 26.3491 18.3603 26.7069ZM15.0551 25.9655C16.9538 25.8291 18.7857 25.2075 20.3752 24.16C20.6525 23.9846 20.9412 23.8035 21.1846 23.5941C19.5015 23.9278 17.7546 23.6481 16.2599 22.8053C14.7653 21.9626 13.6218 20.6127 13.0363 18.9998C12.4508 17.387 12.462 15.6178 13.068 14.0126C13.6739 12.4073 14.8346 11.072 16.3398 10.2484C14.1051 10.326 11.9415 11.0538 10.1141 12.3425C9.00815 14.8119 8.90334 17.6141 9.82174 20.1592C10.7401 22.7043 12.6101 24.7939 15.0381 25.9881L15.0551 25.9655ZM23.7201 27.737C22.2526 28.2747 20.693 28.5156 19.1316 28.4457C17.5703 28.3757 16.0384 27.9963 14.6249 27.3295L13.7307 26.905L14.6419 25.9655H14.9362C16.8768 25.8542 18.7533 25.2313 20.3752 24.16C22.279 23.008 23.7992 21.3184 24.7445 19.304V19.2587C24.7898 19.1738 24.8294 19.0946 24.869 19.0097L25.169 18.3701L30.6929 20.9453L30.393 21.5848C29.7437 23.0012 28.8194 24.2744 27.6739 25.3305C26.5284 26.3867 25.1844 27.2047 23.7201 27.737ZM17.851 26.8824C19.9971 27.2587 22.2073 26.9554 24.1727 26.0148C26.1381 25.0742 27.7607 23.5433 28.8139 21.6358L25.8652 20.2605C24.7764 22.3633 23.1296 24.1256 21.1053 25.3542C20.089 25.9983 18.9956 26.5117 17.851 26.8824ZM22.7353 11.6407L22.0731 11.3464L21.8184 11.2332H21.7732C19.7479 10.3113 17.4966 10.0043 15.2984 10.3503C13.3746 10.5696 11.543 11.294 9.98958 12.45L8.36523 13.797L8.88593 11.5784V11.5162C10.2344 8.69062 12.6434 6.51128 15.5894 5.45156C18.5354 4.39183 21.7806 4.53732 24.62 5.85642L25.2596 6.15639L22.7353 11.6407ZM12.1516 9.6824C13.113 9.33319 14.1092 9.08841 15.123 8.9523C17.471 8.57982 19.8764 8.86384 22.0731 9.77296L23.4258 6.85253C21.3838 6.06968 19.1486 5.94223 17.0308 6.48791C14.913 7.03359 13.0177 8.22529 11.6083 9.89747L12.1516 9.6824Z" fill="url(#paint0_linear_2302_1674)"/>
<path d="M39.2668 8.37921L33.7372 9.11498C31.8986 5.6131 28.8243 2.91933 25.1113 1.55661C21.3982 0.193882 17.3112 0.259424 13.6438 1.74051C9.97634 3.2216 6.99004 6.01256 5.26462 9.57159C3.5392 13.1306 3.19775 17.2038 4.30656 21.0004L5.6649 20.6043C4.59845 17.0499 4.9319 13.2223 6.59692 9.90597C8.26194 6.58962 11.1324 4.03574 14.6199 2.76781C18.1075 1.49988 21.9479 1.61395 25.354 3.08663C28.7601 4.55932 31.474 7.27906 32.9392 10.6884L39.2668 8.37921Z" fill="url(#paint1_linear_2302_1674)"/>
<path d="M33.6019 11.4075C34.6214 14.9471 34.2589 18.7418 32.5877 22.0244C30.9165 25.307 28.0613 27.8326 24.5993 29.0906C21.1372 30.3486 17.3267 30.2451 13.938 28.8012C10.5493 27.3572 7.83524 24.6805 6.34457 21.3121L0 23.5986L5.52957 22.8855C7.36823 26.3873 10.4425 29.0811 14.1555 30.4438C17.8686 31.8066 21.9556 31.741 25.623 30.2599C29.2905 28.7788 32.2768 25.9879 34.0022 22.4289C35.7276 18.8698 36.0691 14.7966 34.9602 11L33.6019 11.4075Z" fill="url(#paint2_linear_2302_1674)"/>
<defs>
<linearGradient id="paint0_linear_2302_1674" x1="27.8121" y1="14.1366" x2="5.86363" y2="20.7189" gradientUnits="userSpaceOnUse">
<stop stop-color="#4FD7FA"/>
<stop offset="1" stop-color="#CDBDE7"/>
</linearGradient>
<linearGradient id="paint1_linear_2302_1674" x1="0.0410272" y1="16.6599" x2="36.623" y2="5.33696" gradientUnits="userSpaceOnUse">
<stop stop-color="#FEAC05"/>
<stop offset="0.333333" stop-color="#D34004"/>
<stop offset="0.46875" stop-color="#800088"/>
<stop offset="1" stop-color="#EF8800"/>
</linearGradient>
<linearGradient id="paint2_linear_2302_1674" x1="-3.62597" y1="27.0799" x2="32.956" y2="15.7569" gradientUnits="userSpaceOnUse">
<stop stop-color="#FEAC05"/>
<stop offset="0.333333" stop-color="#D34004"/>
<stop offset="0.46875" stop-color="#800088"/>
<stop offset="1" stop-color="#EF8800"/>
</linearGradient>
</defs>
</svg>
