<svg width="21" height="21" viewBox="0 0 21 21" fill="none" xmlns="http://www.w3.org/2000/svg">
<path d="M9.39746 0.491211C8.01855 0.491211 6.89746 1.6123 6.89746 2.99121V11.7412C6.89746 13.1201 8.01855 14.2412 9.39746 14.2412H18.1475C19.5264 14.2412 20.6475 13.1201 20.6475 11.7412V2.99121C20.6475 1.6123 19.5264 0.491211 18.1475 0.491211H9.39746ZM3.14746 6.74121C1.76855 6.74121 0.647461 7.8623 0.647461 9.24121V17.9912C0.647461 19.3701 1.76855 20.4912 3.14746 20.4912H11.8975C13.2764 20.4912 14.3975 19.3701 14.3975 17.9912V15.4912H11.8975V17.9912H3.14746V9.24121H5.64746V6.74121H3.14746Z" fill="#9689F8"/>
</svg>
